nColumns=19
nRows=50
DataType=double
version=3
OpenSimVersion=4.1
endheader
time	ground_force_calcn_l_vx	ground_force_calcn_l_vy	ground_force_calcn_l_vz	ground_force_calcn_l_px	ground_force_calcn_l_py	ground_force_calcn_l_pz	ground_force_calcn_l_mx	ground_force_calcn_l_my	ground_force_calcn_l_mz	ground_force_calcn_r_vx	ground_force_calcn_r_vy	ground_force_calcn_r_vz	ground_force_calcn_r_px	ground_force_calcn_r_py	ground_force_calcn_r_pz	ground_force_calcn_r_mx	ground_force_calcn_r_my	ground_force_calcn_r_mz
3.64251	1.11156	349.188	-48.8335	-0.256464	-2.79582e-17	0.192081	-0.0368712	-11.5828	1.61984	-14.8829	355.532	48.8279	-0.212803	-2.34113e-17	-0.180439	-0.20942	5.00278	0.687068
3.65248	0.966635	346.113	-49.2895	-0.256563	-2.79601e-17	0.191781	-0.03204	-11.4722	1.63375	-14.3554	355.079	49.6752	-0.213128	-2.34436e-17	-0.180874	-0.201833	4.99229	0.698418
3.66246	0.80837	342.856	-49.6835	-0.256619	-2.79564e-17	0.1915	-0.0268333	-11.3809	1.64921	-13.7888	354.292	50.4579	-0.213511	-2.34823e-17	-0.181307	-0.193724	4.97758	0.708901
3.67244	0.642783	339.455	-50.0366	-0.256705	-2.79552e-17	0.191241	-0.0213994	-11.3011	1.6658	-13.2801	353.134	51.1432	-0.213905	-2.3523e-17	-0.181742	-0.186018	4.94644	0.716376
3.68242	0.48032	335.957	-50.3715	-0.256832	-2.79579e-17	0.191001	-0.0160475	-11.2243	1.68291	-12.8963	351.598	51.6995	-0.214291	-2.35646e-17	-0.182165	-0.178926	4.87813	0.717289
3.6924	0.319102	332.402	-50.6943	-0.25697	-2.79611e-17	0.190808	-0.010709	-11.1553	1.70128	-12.6757	349.728	52.1208	-0.214654	-2.36055e-17	-0.182581	-0.173064	4.77491	0.711617
3.70238	0.169982	328.81	-50.995	-0.257078	-2.79609e-17	0.190679	-0.00573054	-11.0851	1.71918	-12.6037	347.658	52.4368	-0.214964	-2.36415e-17	-0.183013	-0.168778	4.65554	0.702189
3.71236	0.0360756	325.141	-51.2623	-0.257205	-2.79632e-17	0.190605	-0.00122078	-11.0027	1.73469	-12.612	345.544	52.702	-0.215249	-2.36753e-17	-0.183482	-0.165477	4.53375	0.691482
3.72234	-0.0904428	321.331	-51.499	-0.25743	-2.79765e-17	0.190553	0.00306991	-10.907	1.74804	-12.6148	343.524	52.9685	-0.215566	-2.3713e-17	-0.18398	-0.161854	4.40759	0.679613
3.73232	-0.213428	317.345	-51.6986	-0.25776	-2.80017e-17	0.190528	0.00726235	-10.7984	1.75916	-12.5457	341.708	53.2758	-0.215948	-2.37579e-17	-0.184506	-0.15735	4.28574	0.668191
3.7423	-0.32027	313.187	-51.8411	-0.258146	-2.80337e-17	0.190555	0.0109142	-10.6728	1.76665	-12.3759	340.142	53.6249	-0.216414	-2.38122e-17	-0.185069	-0.151715	4.16978	0.657383
3.75228	-0.421872	308.888	-51.9154	-0.258579	-2.80719e-17	0.190629	0.0143837	-10.5315	1.77005	-12.0991	338.786	53.9747	-0.216963	-2.38761e-17	-0.185655	-0.144773	4.05378	0.64584
3.76226	-0.517721	304.476	-51.9104	-0.259106	-2.81214e-17	0.190734	0.0176462	-10.3779	1.76934	-11.7543	337.483	54.2741	-0.217614	-2.39523e-17	-0.186247	-0.136744	3.92612	0.631399
3.77224	-0.608053	300.024	-51.8002	-0.259711	-2.81818e-17	0.190855	0.0206824	-10.205	1.76194	-11.3921	336.039	54.4663	-0.218395	-2.40446e-17	-0.186838	-0.127903	3.77284	0.611513
3.78222	-0.69099	295.623	-51.5629	-0.260353	-2.82491e-17	0.190992	0.0234059	-10.0136	1.74659	-11.0587	334.262	54.5083	-0.21929	-2.41519e-17	-0.18743	-0.118603	3.58492	0.584596
3.7922	-0.781984	291.316	-51.1887	-0.261028	-2.83235e-17	0.191138	0.026314	-9.80285	1.72251	-10.785	331.964	54.3629	-0.220285	-2.42722e-17	-0.188042	-0.109335	3.36534	0.551113
3.80218	-0.900158	287.099	-50.6727	-0.26175	-2.84063e-17	0.191288	0.0300339	-9.57908	1.6907	-10.5801	328.995	53.9988	-0.221386	-2.44058e-17	-0.188676	-0.10042	3.12261	0.512522
3.81216	-1.04195	282.968	-50.0207	-0.262524	-2.8498e-17	0.191439	0.0344063	-9.34394	1.65174	-10.4512	325.312	53.4191	-0.222653	-2.45591e-17	-0.189333	-0.0919447	2.86195	0.469957
3.82214	-1.2161	278.947	-49.2373	-0.263402	-2.8604e-17	0.191614	0.039684	-9.10268	1.60673	-10.395	321.002	52.641	-0.224101	-2.47332e-17	-0.190036	-0.0839142	2.59129	0.424945
3.83211	-1.40498	275.092	-48.3486	-0.264361	-2.87211e-17	0.191818	0.0452803	-8.86581	1.5582	-10.4211	316.22	51.6823	-0.225681	-2.49223e-17	-0.190786	-0.0765723	2.32351	0.379751
3.84209	-1.59332	271.464	-47.3909	-0.265347	-2.8843e-17	0.192033	0.05068	-8.63468	1.5074	-10.5369	311.121	50.5539	-0.227357	-2.51214e-17	-0.191554	-0.0702459	2.07412	0.337024
3.85207	-1.74748	268.164	-46.3957	-0.266326	-2.89649e-17	0.19228	0.0548756	-8.42107	1.45695	-10.7591	305.899	49.2964	-0.229086	-2.53253e-17	-0.192315	-0.0651147	1.85132	0.298346
3.86205	-1.8598	265.34	-45.3958	-0.267313	-2.90886e-17	0.192561	0.0576752	-8.22858	1.40779	-11.0968	300.822	47.9745	-0.230783	-2.55247e-17	-0.19306	-0.0609783	1.65305	0.263625
3.87203	-1.95424	263.158	-44.4488	-0.268282	-2.9211e-17	0.192827	0.05985	-8.0594	1.36127	-11.5551	296.17	46.667	-0.232371	-2.57113e-17	-0.19378	-0.0575061	1.47395	0.232247
3.88201	-2.04712	261.773	-43.6051	-0.269142	-2.93213e-17	0.193035	0.0619318	-7.91946	1.31919	-12.117	292.21	45.4452	-0.233818	-2.58813e-17	-0.194461	-0.0545505	1.31552	0.204593
3.89199	-2.16903	261.37	-42.9235	-0.269865	-2.9416e-17	0.193162	0.0648342	-7.81259	1.28302	-12.7502	289.205	44.3715	-0.235063	-2.60273e-17	-0.195095	-0.0523021	1.18633	0.182014
3.90197	-2.36525	262.136	-42.444	-0.270449	-2.94945e-17	0.193214	0.0699191	-7.74901	1.25469	-13.4327	287.362	43.5022	-0.236083	-2.61464e-17	-0.195684	-0.0512375	1.09611	0.165934
3.91195	-2.66139	264.234	-42.1806	-0.27086	-2.95522e-17	0.193214	0.0779766	-7.74183	1.23586	-14.1388	286.836	42.8786	-0.236879	-2.62382e-17	-0.196204	-0.0516403	1.04764	0.156609
3.92193	-3.08178	267.787	-42.1537	-0.271069	-2.95862e-17	0.193162	0.0896747	-7.79216	1.2266	-14.8383	287.702	42.504	-0.237453	-2.63036e-17	-0.196616	-0.0532897	1.03324	0.152647
3.93191	-3.65045	272.877	-42.3728	-0.271088	-2.95976e-17	0.193081	0.105718	-7.90262	1.22713	-15.5235	289.955	42.3485	-0.237827	-2.6345e-17	-0.196914	-0.0565607	1.05647	0.154299
3.94189	-4.39127	279.485	-42.8516	-0.270926	-2.95867e-17	0.192982	0.126956	-8.0802	1.23888	-16.2162	293.527	42.3682	-0.238046	-2.63679e-17	-0.197099	-0.0611778	1.10737	0.15984
3.95187	-5.30282	287.479	-43.5831	-0.270613	-2.95569e-17	0.192861	0.153476	-8.32031	1.2614	-16.9239	298.299	42.5167	-0.238129	-2.63758e-17	-0.197159	-0.0661212	1.16544	0.166111
3.96185	-6.33193	296.624	-44.5255	-0.270232	-2.95177e-17	0.192759	0.183918	-8.6158	1.29329	-17.6639	304.104	42.7517	-0.238118	-2.63741e-17	-0.197115	-0.0705013	1.21376	0.170634
3.97183	-7.39554	306.612	-45.6176	-0.269867	-2.94793e-17	0.192698	0.215785	-8.94623	1.33102	-18.4556	310.735	43.0375	-0.23806	-2.63684e-17	-0.197002	-0.0740056	1.24602	0.172577
3.98181	-8.38359	317.047	-46.7903	-0.269559	-2.94473e-17	0.192675	0.245439	-9.28193	1.36984	-19.2927	317.92	43.3168	-0.23804	-2.63672e-17	-0.196847	-0.0771058	1.27061	0.173121
3.99179	-9.17115	327.478	-47.9766	-0.269343	-2.94256e-17	0.192726	0.269199	-9.6124	1.40825	-20.1356	325.372	43.5623	-0.238111	-2.63773e-17	-0.196655	-0.0789467	1.2757	0.170797
4.00177	-9.63482	337.401	-49.1039	-0.26929	-2.94218e-17	0.192898	0.283465	-9.92662	1.44468	-20.9227	332.821	43.7721	-0.238329	-2.64044e-17	-0.196465	-0.0794249	1.26342	0.166163
4.01175	-9.65031	346.294	-50.1228	-0.26949	-2.9446e-17	0.193212	0.284307	-10.2021	1.47666	-21.5817	340.015	43.9588	-0.23874	-2.64526e-17	-0.196323	-0.0794672	1.25199	0.161863
4.02172	-9.14084	353.683	-50.9974	-0.270009	-2.95057e-17	0.193664	0.269168	-10.4148	1.50171	-21.9904	346.725	44.1608	-0.239366	-2.65237e-17	-0.196242	-0.0798431	1.2589	0.16034
4.0317	-8.08969	359.192	-51.7	-0.270881	-2.96039e-17	0.194269	0.237899	-10.563	1.52038	-22.0433	352.786	44.4203	-0.240219	-2.66182e-17	-0.196249	-0.0812506	1.30035	0.163731
4.04168	-6.54153	362.625	-52.2012	-0.272086	-2.97386e-17	0.19502	0.191954	-10.6408	1.53179	-21.6734	358.086	44.7695	-0.24128	-2.67332e-17	-0.196372	-0.0847329	1.39995	0.175028
4.05166	-4.57535	363.962	-52.4768	-0.273592	-2.99067e-17	0.195898	0.133793	-10.643	1.53453	-20.8566	362.562	45.2334	-0.242505	-2.68635e-17	-0.196607	-0.0903158	1.57001	0.195875
4.06164	-2.31787	363.344	-52.5175	-0.275333	-3.01007e-17	0.19687	0.06751	-10.5827	1.52962	-19.6225	366.186	45.802	-0.243871	-2.70067e-17	-0.196939	-0.0967632	1.80575	0.225861
4.07162	0.0947379	361.064	-52.3007	-0.277212	-3.031e-17	0.197913	-0.00274913	-10.4775	1.51768	-18.0591	368.988	46.4445	-0.245347	-2.71599e-17	-0.197345	-0.102215	2.08849	0.262878
4.0816	2.53253	357.494	-51.8174	-0.279115	-3.05226e-17	0.198995	-0.0732396	-10.3386	1.49854	-16.2838	371.068	47.1077	-0.246891	-2.7319e-17	-0.197805	-0.105585	2.40602	0.305448
4.09158	4.87233	353.02	-51.0765	-0.280958	-3.07293e-17	0.200069	-0.140522	-10.1814	1.47309	-14.4172	372.554	47.717	-0.248471	-2.74815e-17	-0.19826	-0.105776	2.73333	0.350088
4.10156	6.99174	348.022	-50.1082	-0.282696	-3.09252e-17	0.201082	-0.201352	-10.0226	1.44305	-12.5833	373.589	48.2026	-0.25009	-2.76489e-17	-0.198659	-0.102506	3.04335	0.392671
4.11154	8.82106	342.891	-48.9359	-0.284299	-3.11076e-17	0.202009	-0.253796	-9.8655	1.40796	-10.8981	374.35	48.5236	-0.25169	-2.78154e-17	-0.198972	-0.0967993	3.32504	0.430995
4.12152	10.311	337.978	-47.6151	-0.285717	-3.12718e-17	0.202823	-0.29604	-9.70372	1.36708	-9.45338	375.022	48.662	-0.253183	-2.79718e-17	-0.199189	-0.0900216	3.57122	0.463393
4.1315	11.4074	333.582	-46.2235	-0.286902	-3.14123e-17	0.203484	-0.326397	-9.54471	1.32258	-8.30085	375.751	48.6229	-0.254512	-2.81123e-17	-0.199314	-0.0833576	3.77331	0.488274
